name C:/MyDriveSym/Projects/mobilecap/Data\Session20210825_0002\mocap\ForceDataProcessed\walking1_forces.mot
datacolumns 19
datarows 27
range 0.98950000 1.00250000
endheader 
time	R_ground_force_vx	R_ground_force_vy	R_ground_force_vz	R_ground_force_px	R_ground_force_py	R_ground_force_pz	R_ground_torque_x	R_ground_torque_y	R_ground_torque_z	L_ground_force_vx	L_ground_force_vy	L_ground_force_vz	L_ground_force_px	L_ground_force_py	L_ground_force_pz	L_ground_torque_x	L_ground_torque_y	L_ground_torque_z	
          0.98950000	          0.00000000	          0.00000000	          0.00000000	          1.20227100	          0.00000000	         -0.15272200	          0.00000000	          0.00000000	          0.00000000	         40.26115500	        567.27780100	         19.37236400	          0.91778300	          0.00600000	         -0.25584600	          0.00000000	          2.80021100	          0.00000000	
          0.99000000	          0.00000000	          0.00000000	          0.00000000	          1.20389400	          0.00000000	         -0.15274000	          0.00000000	          0.00000000	          0.00000000	         40.54937000	        568.14943200	         19.45057900	          0.91793200	          0.00600000	         -0.25586600	          0.00000000	          2.79762000	          0.00000000	
          0.99050000	          0.00000000	          0.00000000	          0.00000000	          1.20551800	          0.00000000	         -0.15275900	          0.00000000	          0.00000000	          0.00000000	         40.83830700	        569.02132700	         19.52872900	          0.91808000	          0.00600000	         -0.25588500	          0.00000000	          2.79490300	          0.00000000	
          0.99100000	          0.00000000	          0.00000000	          0.00000000	          1.20714200	          0.00000000	         -0.15277700	          0.00000000	          0.00000000	          0.00000000	         41.12796000	        569.89340600	         19.60680600	          0.91822700	          0.00600000	         -0.25590400	          0.00000000	          2.79206100	          0.00000000	
          0.99150000	          0.00000000	          0.00000000	          0.00000000	          1.20876600	          0.00000000	         -0.15279500	          0.00000000	          0.00000000	          0.00000000	         41.41832300	        570.76558700	         19.68479900	          0.91837500	          0.00600000	         -0.25592300	          0.00000000	          2.78909600	          0.00000000	
          0.99200000	          0.00000000	          0.00000000	          0.00000000	          1.21039000	          0.00000000	         -0.15281400	          0.00000000	          0.00000000	          0.00000000	         41.70938900	        571.63778600	         19.76269800	          0.91852200	          0.00600000	         -0.25594200	          0.00000000	          2.78600600	          0.00000000	
          0.99250000	          0.00000000	          0.00000000	          0.00000000	          1.21201300	          0.00000000	         -0.15283200	          0.00000000	          0.00000000	          0.00000000	         42.00115200	        572.50992100	         19.84049600	          0.91866900	          0.00600000	         -0.25596000	          0.00000000	          2.78279300	          0.00000000	
          0.99300000	          0.00000000	          0.00000000	          0.00000000	          1.21363700	          0.00000000	         -0.15285100	          0.00000000	          0.00000000	          0.00000000	         42.29360500	        573.38190700	         19.91818100	          0.91881600	          0.00600000	         -0.25597800	          0.00000000	          2.77945600	          0.00000000	
          0.99350000	          0.00000000	          0.00000000	          0.00000000	          1.21526100	          0.00000000	         -0.15286900	          0.00000000	          0.00000000	          0.00000000	         42.58674200	        574.25366000	         19.99574400	          0.91896300	          0.00600000	         -0.25599600	          0.00000000	          2.77599700	          0.00000000	
          0.99400000	          0.00000000	          0.00000000	          0.00000000	          1.21688500	          0.00000000	         -0.15288700	          0.00000000	          0.00000000	          0.00000000	         42.88055500	        575.12509500	         20.07317600	          0.91910900	          0.00600000	         -0.25601300	          0.00000000	          2.77241600	          0.00000000	
          0.99450000	          0.00000000	          0.00000000	          0.00000000	          1.21850900	          0.00000000	         -0.15290600	          0.00000000	          0.00000000	          0.00000000	         43.17503800	        575.99612500	         20.15046700	          0.91925500	          0.00600000	         -0.25603100	          0.00000000	          2.76871400	          0.00000000	
          0.99500000	          0.00000000	          0.00000000	          0.00000000	          1.22013300	          0.00000000	         -0.15292400	          0.00000000	          0.00000000	          0.00000000	         43.47018200	        576.86666500	         20.22760800	          0.91940100	          0.00600000	         -0.25604700	          0.00000000	          2.76489000	          0.00000000	
          0.99550000	          0.00000000	          0.00000000	          0.00000000	          1.22175600	          0.00000000	         -0.15294200	          0.00000000	          0.00000000	          0.00000000	         43.76598100	        577.73662700	         20.30458800	          0.91954700	          0.00600000	         -0.25606400	          0.00000000	          2.76094500	          0.00000000	
          0.99600000	          0.00000000	          0.00000000	          0.00000000	          1.22338000	          0.00000000	         -0.15296100	          0.00000000	          0.00000000	          0.00000000	         44.06242700	        578.60592300	         20.38139900	          0.91969300	          0.00600000	         -0.25608100	          0.00000000	          2.75688000	          0.00000000	
          0.99650000	          0.00000000	          0.00000000	          0.00000000	          1.22500400	          0.00000000	         -0.15297900	          0.00000000	          0.00000000	          0.00000000	         44.35951200	        579.47446600	         20.45803000	          0.91983800	          0.00600000	         -0.25609700	          0.00000000	          2.75269600	          0.00000000	
          0.99700000	          0.00000000	          0.00000000	          0.00000000	          1.22662800	          0.00000000	         -0.15299700	          0.00000000	          0.00000000	          0.00000000	         44.65722700	        580.34216600	         20.53447200	          0.91998300	          0.00600000	         -0.25611300	          0.00000000	          2.74839200	          0.00000000	
          0.99750000	          0.00000000	          0.00000000	          0.00000000	          1.22825200	          0.00000000	         -0.15301600	          0.00000000	          0.00000000	          0.00000000	         44.95556600	        581.20893400	         20.61071400	          0.92012800	          0.00600000	         -0.25612800	          0.00000000	          2.74397000	          0.00000000	
          0.99800000	          0.00000000	          0.00000000	          0.00000000	          1.22987500	          0.00000000	         -0.15303400	          0.00000000	          0.00000000	          0.00000000	         45.25451900	        582.07468000	         20.68674800	          0.92027200	          0.00600000	         -0.25614300	          0.00000000	          2.73943000	          0.00000000	
          0.99850000	          0.00000000	          0.00000000	          0.00000000	          1.23149900	          0.00000000	         -0.15305300	          0.00000000	          0.00000000	          0.00000000	         45.55407800	        582.93931300	         20.76256400	          0.92041700	          0.00600000	         -0.25615800	          0.00000000	          2.73477300	          0.00000000	
          0.99900000	          0.00000000	          0.00000000	          0.00000000	          1.23312300	          0.00000000	         -0.15307100	          0.00000000	          0.00000000	          0.00000000	         45.85423500	        583.80274200	         20.83815100	          0.92056100	          0.00600000	         -0.25617300	          0.00000000	          2.72999900	          0.00000000	
          0.99950000	          0.00000000	          0.00000000	          0.00000000	          1.23474700	          0.00000000	         -0.15308900	          0.00000000	          0.00000000	          0.00000000	         46.15498000	        584.66487600	         20.91350000	          0.92070500	          0.00600000	         -0.25618800	          0.00000000	          2.72510800	          0.00000000	
          1.00000000	          0.00000000	          0.00000000	          0.00000000	          1.23637100	          0.00000000	         -0.15310800	          0.00000000	          0.00000000	          0.00000000	         46.45630600	        585.52562100	         20.98860200	          0.92084900	          0.00600000	         -0.25620200	          0.00000000	          2.72010200	          0.00000000	
          1.00050000	          0.00000000	          0.00000000	          0.00000000	          1.23799400	          0.00000000	         -0.15312600	          0.00000000	          0.00000000	          0.00000000	         46.75820100	        586.38488500	         21.06344600	          0.92099200	          0.00600000	         -0.25621600	          0.00000000	          2.71498100	          0.00000000	
          1.00100000	          0.00000000	          0.00000000	          0.00000000	          1.23961800	          0.00000000	         -0.15314400	          0.00000000	          0.00000000	          0.00000000	         47.06065900	        587.24257500	         21.13802200	          0.92113600	          0.00600000	         -0.25622900	          0.00000000	          2.70974600	          0.00000000	
          1.00150000	          0.00000000	          0.00000000	          0.00000000	          1.24124200	          0.00000000	         -0.15316300	          0.00000000	          0.00000000	          0.00000000	         47.36366800	        588.09859600	         21.21232100	          0.92127900	          0.00600000	         -0.25624300	          0.00000000	          2.70439700	          0.00000000	
          1.00200000	          0.00000000	          0.00000000	          0.00000000	          1.24286600	          0.00000000	         -0.15318100	          0.00000000	          0.00000000	          0.00000000	         47.66722000	        588.95285400	         21.28633200	          0.92142200	          0.00600000	         -0.25625600	          0.00000000	          2.69893500	          0.00000000	
          1.00250000	          0.00000000	          0.00000000	          0.00000000	          1.24449000	          0.00000000	         -0.15319900	          0.00000000	          0.00000000	          0.00000000	         47.97130500	        589.80525400	         21.36004700	          0.92156500	          0.00600000	         -0.25626900	          0.00000000	          2.69336100	          0.00000000	
